#!OML:ASF F:\VICON\USERDATA\INSTALL\rory3\rory3.ASF
:FULLY-SPECIFIED
:DEGREES
415
root -18.3143 18.0312 19.175 -2.33009 -39.7479 -1.25446
lowerback 9.84922 0.851743 1.08258
upperback 0.839619 1.31075 1.55681
thorax -4.66214 0.633292 0.831966
lowerneck -19.8062 -5.29646 -9.25548
upperneck 25.0246 -6.23555 5.66075
head 11.9998 -3.0018 2.64725
rclavicle 1.21259e-013 -4.37326e-015
rhumerus -34.8729 -10.2365 -79.4008
rradius 28.3909
rwrist 7.88047
rhand -14.4765 11.1515
rfingers 7.12502
rthumb 11.6696 -18.5036
lclavicle 1.21259e-013 -4.37326e-015
lhumerus -35.5489 0.49398 86.41
lradius 31.2394
lwrist -12.4109
lhand -15.6198 25.1657
lfingers 7.12502
lthumb 10.5669 54.88
rfemur -5.55085 -0.461544 26.9535
rtibia 26.5118
rfoot -12.7503 -8.97709
rtoes 1.87155
lfemur -11.3212 0.00425798 -17.999
ltibia 60.6247
lfoot 3.74957 -2.90984
ltoes -5.92801
416
root -18.4139 18.022 19.2654 -2.15333 -39.8817 -1.58828
lowerback 9.99955 0.965127 1.29531
upperback 0.803901 1.49134 1.61001
thorax -4.78099 0.717878 0.740312
lowerneck -19.6653 -5.25685 -9.17605
upperneck 25.063 -6.20639 5.60648
head 11.979 -2.99144 2.62101
rclavicle -8.15017e-014 -2.38542e-015
rhumerus -34.4292 -10.1088 -79.512
rradius 28.4628
rwrist 7.97731
rhand -14.1865 9.89379
rfingers 7.12502
rthumb 11.9493 -19.7452
lclavicle -8.15017e-014 -2.38542e-015
lhumerus -35.7212 1.00401 86.2908
lradius 31.3935
lwrist -11.2838
lhand -15.7827 25.1511
lfingers 7.12502
lthumb 10.4098 54.8734
rfemur -5.08439 -0.401703 27.3287
rtibia 26.5918
rfoot -13.1386 -9.03967
rtoes 1.20213
lfemur -12.672 0.446622 -17.6007
ltibia 60.9205
lfoot 2.89959 -2.73041
ltoes -4.60514
417
root -18.5081 17.996 19.3539 -1.82577 -39.9524 -2.0833
lowerback 10.149 1.04885 1.64494
upperback 0.740077 1.65187 1.70957
thorax -4.92541 0.789421 0.621905
lowerneck -19.4622 -5.2195 -9.28448
upperneck 24.9987 -6.16943 5.72606
head 11.9189 -2.97365 2.69298
rclavicle -3.75952e-014 1.15295e-014
rhumerus -33.9343 -10.4617 -79.3012
rradius 28.0578
rwrist 8.6147
rhand -13.9971 9.7086
rfingers 7.12502
rthumb 12.1319 -19.9196
lclavicle -3.75952e-014 1.15295e-014
lhumerus -35.8363 1.37024 86.2467
lradius 31.4451
lwrist -10.0067
lhand -15.809 25.3352
lfingers 7.12502
lthumb 10.3844 55.0588
rfemur -4.64727 -0.448112 27.8268
rtibia 26.639
rfoot -13.5289 -9.11501
rtoes 1.36826
lfemur -13.964 0.927535 -17.1692
ltibia 61.0625
lfoot 1.79709 -2.70806
ltoes -7.06356
418
root -18.602 17.9547 19.4475 -1.55641 -40.0302 -2.48864
lowerback 10.1257 1.15393 1.99012
upperback 0.772482 1.8305 1.75629
thorax -4.8693 0.870727 0.452243
lowerneck -19.4401 -5.22653 -9.26129
upperneck 24.9869 -6.17264 5.67546
head 11.9076 -2.97924 2.66966
rclavicle -7.83957e-014 2.78299e-015
rhumerus -33.3647 -10.6394 -79.1301
rradius 27.5055
rwrist 8.98332
rhand -14.4406 10.5371
rfingers 7.12502
rthumb 11.7042 -19.1159
lclavicle -7.83957e-014 2.78299e-015
lhumerus -35.816 1.73996 86.1888
lradius 31.5517
lwrist -8.84045
lhand -16.0203 25.7101
lfingers 7.12502
lthumb 10.1805 55.4438
rfemur -4.1645 -0.702749 28.2043
rtibia 26.7289
rfoot -14.1006 -9.03611
rtoes 0.974561
lfemur -15.1757 1.36742 -16.9012
ltibia 61.0868
lfoot 0.567438 -2.67056
ltoes -10.5875
419
root -18.6984 17.9237 19.543 -1.47964 -40.1509 -2.68019
lowerback 10.203 1.26002 2.18723
upperback 0.767919 1.99417 1.7127
thorax -4.9082 0.946332 0.271342
lowerneck -19.4248 -5.19115 -9.16752
upperneck 25.0632 -6.16619 5.7001
head 11.9305 -2.96531 2.66566
rclavicle -8.92046e-015 2.18663e-014
rhumerus -32.6124 -11.4233 -79.0464
rradius 26.6873
rwrist 10.0333
rhand -15.7228 11.7408
rfingers 7.12502
rthumb 10.4676 -17.9786
lclavicle -8.92046e-015 2.18663e-014
lhumerus -35.9766 2.3031 85.9392
lradius 31.8012
lwrist -8.08075
lhand -15.9776 26.1168
lfingers 7.12502
lthumb 10.2217 55.8485
rfemur -3.58301 -0.842822 28.3997
rtibia 26.8047
rfoot -14.7729 -8.98014
rtoes 0.993672
lfemur -16.2913 1.75017 -16.8038
ltibia 60.9035
lfoot -0.495738 -2.67911
ltoes -11.8363
420
root -18.7895 17.9056 19.6259 -1.19698 -40.2558 -3.16111
lowerback 10.4544 1.34248 2.56189
upperback 0.73228 2.15754 1.73234
thorax -5.07179 1.01631 0.0516801
lowerneck -19.3271 -5.18624 -9.19996
upperneck 25.0477 -6.21789 5.9037
head 11.9181 -2.96764 2.74074
rclavicle -7.1811e-014 1.23246e-014
rhumerus -32.8558 -10.2719 -79.1184
rradius 27.2027
rwrist 9.14466
rhand -17.159 13.2034
rfingers 7.12502
rthumb 9.08192 -16.5811
lclavicle -7.1811e-014 1.23246e-014
lhumerus -36.0896 2.75813 85.7023
lradius 32.0468
lwrist -7.43273
lhand -15.9164 26.2479
lfingers 7.12502
lthumb 10.2808 55.9766
rfemur -3.1 -0.562338 28.9294
rtibia 26.8087
rfoot -15.2238 -9.22593
rtoes 1.68081
lfemur -17.5101 2.14096 -16.3945
ltibia 60.4867
lfoot -1.47401 -2.71817
ltoes -10.8085
421
root -18.8806 17.8885 19.7134 -0.721935 -40.2956 -3.84229
lowerback 10.5673 1.41427 3.14049
upperback 0.719039 2.32933 1.8186
thorax -5.12707 1.08717 -0.210694
lowerneck -19.4794 -5.29486 -9.20959
upperneck 25.1978 -6.34995 5.85751
head 12.0176 -3.03124 2.70193
rclavicle -8.84095e-014 1.90833e-014
rhumerus -32.5486 -10.1542 -78.9762
rradius 27.1573
rwrist 9.11224
rhand -17.9782 14.452
rfingers 7.12502
rthumb 8.29138 -15.3653
lclavicle -8.84095e-014 1.90833e-014
lhumerus -36.0654 2.88477 85.6735
lradius 32.207
lwrist -6.73126
lhand -16.2665 26.3718
lfingers 7.12502
lthumb 9.94305 56.1169
rfemur -2.65457 -0.460362 29.5808
rtibia 26.7435
rfoot -15.5057 -9.29332
rtoes 1.19357
lfemur -18.6989 2.46679 -15.8404
ltibia 59.7801
lfoot -2.54563 -2.59782
ltoes -8.59284
422
root -18.987 17.8741 19.8269 -0.706843 -40.2556 -3.8603
lowerback 10.3873 1.45993 3.20431
upperback 0.726051 2.38804 1.79625
thorax -5.01401 1.11653 -0.27291
lowerneck -19.5353 -5.33045 -9.15851
upperneck 25.3874 -6.37822 5.70317
head 12.0978 -3.05916 2.63118
rclavicle 4.05645e-014 -1.70955e-014
rhumerus -31.9505 -10.7497 -78.7833
rradius 26.8988
rwrist 9.25128
rhand -17.5788 14.3117
rfingers 7.12502
rthumb 8.67678 -15.49
lclavicle 4.05645e-014 -1.70955e-014
lhumerus -36.1379 3.04091 85.683
lradius 32.1921
lwrist -6.23065
lhand -16.926 26.4699
lfingers 7.12502
lthumb 9.30677 56.2445
rfemur -2.03785 -0.879167 29.5402
rtibia 26.6738
rfoot -15.9525 -9.02277
rtoes 0.47346
lfemur -19.4875 2.6134 -15.9425
ltibia 58.7214
lfoot -3.55451 -2.41983
ltoes -8.00875
423
root -19.096 17.8656 19.9406 -0.959008 -40.2939 -3.39665
lowerback 10.1506 1.54006 2.83689
upperback 0.73348 2.43557 1.64389
thorax -4.88083 1.14952 -0.225468
lowerneck -19.4 -5.26866 -9.05402
upperneck 25.361 -6.34521 5.73206
head 12.0541 -3.03337 2.63227
rclavicle 2.14936e-015 1.19271e-014
rhumerus -31.3934 -10.9815 -78.8546
rradius 27.3132
rwrist 8.03428
rhand -16.0398 12.3847
rfingers 7.12502
rthumb 10.1618 -17.3499
lclavicle 2.14936e-015 1.19271e-014
lhumerus -36.2597 3.21682 85.5963
lradius 32.1997
lwrist -5.97781
lhand -17.3764 26.2264
lfingers 7.12502
lthumb 8.87218 56.0198
rfemur -1.44284 -1.19152 29.0964
rtibia 26.5724
rfoot -16.3941 -8.79975
rtoes -0.108742
lfemur -20.1998 2.76068 -16.4893
ltibia 57.4113
lfoot -4.29342 -2.37113
ltoes -8.60521
424
root -19.1944 17.8521 20.0392 -0.857972 -40.4491 -3.44898
lowerback 10.0612 1.68859 2.91388
upperback 0.741423 2.63598 1.60854
thorax -4.81286 1.2476 -0.330031
lowerneck -19.1491 -5.28022 -9.19669
upperneck 25.1603 -6.39092 5.94666
head 11.9436 -3.04364 2.73123
rclavicle 2.25496e-014 -1.94809e-014
rhumerus -31.158 -10.6629 -78.8297
rradius 27.4946
rwrist 7.6723
rhand -16.3458 12.5652
rfingers 7.12502
rthumb 9.86653 -17.1836
lclavicle 2.25496e-014 -1.94809e-014
lhumerus -36.2376 3.36675 85.6041
lradius 32.1306
lwrist -6.07698
lhand -17.3118 26.1837
lfingers 7.12502
lthumb 8.93452 55.9746
rfemur -0.962563 -1.17186 29.1732
rtibia 26.4349
rfoot -16.5458 -8.80891
rtoes -1.00178
lfemur -20.9623 3.15604 -16.5765
ltibia 55.9765
lfoot -5.01498 -2.35058
ltoes -10.0831
425
root -19.287 17.8289 20.1332 -0.401231 -40.6345 -4.01589
lowerback 10.0009 1.8474 3.42123
upperback 0.776103 2.90309 1.70737
thorax -4.71656 1.37094 -0.544254
lowerneck -18.9833 -5.35502 -9.53098
upperneck 24.9679 -6.47949 6.23997
head 11.869 -3.07967 2.8832
rclavicle 6.87174e-014 1.55052e-014
rhumerus -30.8331 -10.3188 -78.7015
rradius 27.6406
rwrist 7.20936
rhand -16.2718 12.474
rfingers 7.12502
rthumb 9.93797 -17.2715
lclavicle 6.87174e-014 1.55052e-014
lhumerus -36.0804 3.27559 85.7896
lradius 31.9953
lwrist -6.25424
lhand -17.2597 26.2028
lfingers 7.12502
lthumb 8.9847 55.9914
rfemur -0.471012 -1.02302 29.7164
rtibia 26.2171
rfoot -16.6612 -8.9795
rtoes -2.20038
lfemur -21.7312 3.70686 -16.2391
ltibia 54.4116
lfoot -5.74963 -2.23622
ltoes -11.3094
426
root -19.3822 17.8121 20.2341 -0.00915413 -40.7223 -4.38467
lowerback 9.82653 1.93074 3.82874
upperback 0.778983 3.04921 1.70587
thorax -4.59025 1.43715 -0.78576
lowerneck -18.8895 -5.37655 -9.69596
upperneck 24.8991 -6.5243 6.45224
head 11.8428 -3.09014 2.98405
rclavicle -6.16357e-014 -2.74323e-014
rhumerus -30.197 -10.3479 -78.687
rradius 27.4424
rwrist 7.23661
rhand -16.0886 12.4119
rfingers 7.12502
rthumb 10.1147 -17.325
lclavicle -6.16357e-014 -2.74323e-014
lhumerus -36.0189 3.17846 85.8462
lradius 31.9104
lwrist -6.57262
lhand -17.2389 25.9404
lfingers 7.12502
lthumb 9.00481 55.7282
rfemur 0.0775953 -0.887153 30.0786
rtibia 25.8651
rfoot -16.7529 -8.92557
rtoes -2.03876
lfemur -22.477 4.03378 -16.1207
ltibia 52.6603
lfoot -6.57175 -2.06354
ltoes -11.8214
427
root -19.4799 17.819 20.3408 0.262802 -40.8967 -4.43003
lowerback 9.53567 2.05405 3.97352
upperback 0.750242 3.2115 1.63318
thorax -4.43926 1.51729 -0.951375
lowerneck -18.7944 -5.35494 -9.69388
upperneck 24.7988 -6.49518 6.44831
head 11.7822 -3.07832 2.98716
rclavicle 4.80562e-014 4.17448e-015
rhumerus -29.815 -10.3576 -78.6903
rradius 27.4151
rwrist 7.42908
rhand -16.4828 12.7078
rfingers 7.12502
rthumb 9.73438 -17.0472
lclavicle 4.80562e-014 4.17448e-015
lhumerus -36.0289 3.24657 85.8061
lradius 31.871
lwrist -7.17513
lhand -16.8708 25.4977
lfingers 7.12502
lthumb 9.36003 55.2699
rfemur 0.573939 -0.957101 30.0544
rtibia 25.3902
rfoot -16.5785 -7.77715
rtoes 1.95627
lfemur -23.134 4.23296 -16.2739
ltibia 50.6213
lfoot -7.12351 -2.22404
ltoes -11.169
428
root -19.5755 17.8266 20.4423 0.50733 -41.0731 -4.48382
lowerback 9.32959 2.1753 4.01615
upperback 0.763433 3.36413 1.60188
thorax -4.29939 1.59509 -1.01707
lowerneck -18.9617 -5.34833 -9.50215
upperneck 24.7848 -6.46281 6.22992
head 11.791 -3.06846 2.87552
rclavicle -5.26282e-014 4.96962e-015
rhumerus -29.8901 -10.149 -78.7001
rradius 27.9446
rwrist 7.34214
rhand -16.9715 12.9953
rfingers 7.12502
rthumb 9.26286 -16.7812
lclavicle -5.26282e-014 4.96962e-015
lhumerus -35.9555 3.3287 85.8036
lradius 31.8022
lwrist -7.92207
lhand -16.4858 25.327
lfingers 7.12502
lthumb 9.73148 55.0822
rfemur 1.12577 -0.989108 30.0489
rtibia 24.847
rfoot -16.6778 -7.47463
rtoes 2.20817
lfemur -23.6295 4.30237 -16.3731
ltibia 48.3071
lfoot -7.01793 -2.62791
ltoes -10.9858
